<?xml version="1.0" encoding="utf-8"?>
<!-- Generator: Adobe Illustrator 23.1.0, SVG Export Plug-In . SVG Version: 6.00 Build 0)  -->
<svg version="1.1" id="Слой_1" xmlns="http://www.w3.org/2000/svg" xmlns:xlink="http://www.w3.org/1999/xlink" x="0px" y="0px"
	 viewBox="0 0 345 454" style="enable-background:new 0 0 345 454;" xml:space="preserve">
<g>
	<g>
		<path d="M254.93,165.26c6.59-18.08,13.17-36.16,19.76-54.24c0.78-2.15-1.89-3.8-3.67-2.82c-21.72,11.91-44.24,22.34-67.34,31.27
			c-11.83,4.58-23.81,8.77-35.91,12.59c-5.99,1.89-12.01,3.7-18.06,5.41c-5.06,1.43-11.76,2.32-15.3,6.65
			c-2.06,2.52-2.64,5.62-3.31,8.71c-0.67,3.12-1.54,6.19-2.6,9.2c-2.13,6.08-5.13,11.82-8.75,17.14c-1.82,2.67,2.51,5.17,4.32,2.52
			c3.27-4.79,5.96-9.91,8.11-15.3c1.05-2.62,1.95-5.29,2.7-8.01c0.75-2.72,1.15-5.54,1.96-8.24c0.68-2.3,1.97-3.71,4.11-4.76
			c2.41-1.18,5.18-1.72,7.75-2.44c6.06-1.69,12.09-3.47,18.1-5.34c23.87-7.44,47.28-16.34,70.03-26.7
			c12.46-5.68,24.71-11.81,36.71-18.39c-1.22-0.94-2.45-1.88-3.67-2.82c-6.58,18.08-13.17,36.16-19.76,54.24
			c-0.46,1.27,0.52,2.74,1.75,3.08C253.25,167.39,254.47,166.53,254.93,165.26L254.93,165.26z"/>
	</g>
</g>
<g>
	<g>
		<path d="M137.65,169.04c19.58,23.33,39.16,46.65,58.74,69.98c5.56,6.63,11.13,13.26,16.69,19.89c0.87,1.03,2.64,0.9,3.54,0
			c1.02-1.02,0.87-2.5,0-3.54c-19.58-23.33-39.16-46.65-58.74-69.98c-5.56-6.63-11.13-13.26-16.69-19.89c-0.87-1.03-2.64-0.9-3.54,0
			C136.63,166.53,136.78,168.01,137.65,169.04L137.65,169.04z"/>
	</g>
</g>
<g>
	<g>
		<path d="M221.17,262.22c3.76-10,7.53-20,11.29-29.99c0.48-1.26-0.53-2.74-1.75-3.08c-1.4-0.39-2.6,0.48-3.08,1.75
			c-3.76,10-7.53,20-11.29,29.99c-0.48,1.26,0.53,2.74,1.75,3.08C219.5,264.35,220.69,263.48,221.17,262.22L221.17,262.22z"/>
	</g>
</g>
<g>
	<g>
		<path d="M216.95,261.9c-1,0.48-2.02,0.93-3.03,1.38c-0.66,0.29-1.33,0.58-1.99,0.86c-0.36,0.15-0.72,0.3-1.07,0.46
			c-0.38,0.16,0.55-0.23-0.07,0.03c-0.23,0.1-0.46,0.19-0.69,0.29c-3.84,1.61-7.7,3.18-11.57,4.74
			c-10.69,4.32-21.41,8.57-32.12,12.82c-12.17,4.84-24.34,9.68-36.48,14.59c-10.99,4.44-21.98,8.92-32.87,13.6
			c-6.64,2.85-13.5,5.59-19.77,9.22c-0.38,0.22-0.76,0.45-1.14,0.7c-2.68,1.76-0.18,6.09,2.52,4.32c2.09-1.37,4.39-2.45,6.64-3.53
			c3.63-1.74,7.31-3.37,11-4.98c2.31-1,4.62-1.99,6.93-2.98c0.28-0.12,0.56-0.24,0.84-0.36c-0.03,0.01,0.66-0.28,0.34-0.14
			c-0.27,0.11,0.18-0.07,0.24-0.1c0.65-0.27,1.3-0.55,1.96-0.82c1.31-0.55,2.62-1.09,3.92-1.64c5.61-2.33,11.24-4.63,16.87-6.92
			c12.13-4.92,24.29-9.76,36.45-14.6c11.01-4.38,22.03-8.74,33.02-13.16c7.12-2.87,14.29-5.67,21.27-8.84
			c0.44-0.2,0.88-0.4,1.31-0.61c1.22-0.58,1.54-2.32,0.9-3.42C219.64,261.55,218.17,261.32,216.95,261.9L216.95,261.9z"/>
	</g>
</g>
<g>
	<g>
		<path d="M77.55,323.73c4.89-18.08,11.16-35.77,18.84-52.86c0.55-1.23,0.36-2.69-0.9-3.42c-1.07-0.63-2.86-0.34-3.42,0.9
			c-7.86,17.48-14.34,35.55-19.35,54.05C71.89,325.51,76.71,326.84,77.55,323.73L77.55,323.73z"/>
	</g>
</g>
<g>
	<g>
		<path d="M185.91,123.66c24.04-11.48,48.78-21.47,74.01-30.03c7.22-2.45,14.49-4.79,21.79-7.01c3.07-0.94,1.76-5.76-1.33-4.82
			c-25.95,7.91-51.45,17.27-76.32,28.11c-6.94,3.03-13.83,6.18-20.67,9.44c-1.22,0.58-1.54,2.32-0.9,3.42
			C183.22,124.01,184.68,124.24,185.91,123.66L185.91,123.66z"/>
	</g>
</g>
<g>
	<g>
		<path d="M69.34,361.32c24.04-11.48,48.78-21.47,74.01-30.03c7.22-2.45,14.49-4.79,21.79-7.01c3.07-0.94,1.76-5.76-1.33-4.82
			c-25.95,7.91-51.45,17.27-76.32,28.11c-6.94,3.03-13.83,6.18-20.67,9.44c-1.22,0.58-1.54,2.32-0.9,3.42
			C66.64,361.67,68.11,361.9,69.34,361.32L69.34,361.32z"/>
	</g>
</g>
</svg>
